STARTFONT 2.1
FONT matty.latin1.9
SIZE 15 72 72
FONTBOUNDINGBOX 9 15 0 -2
STARTPROPERTIES 4
FONT_DESCENT 2
FONT_ASCENT 13
DEFAULT_CHAR 0
COPYRIGHT "Copyright (c) 1993 James Matthew Farrow - All rights reserved."
ENDPROPERTIES
CHARS 256
STARTCHAR ch-0
ENCODING 0
SWIDTH 600 0
DWIDTH 9 0
BBX 9 15 0 -2
BITMAP
0000
1800
3e00
0f00
8700
ff00
8f00
0f00
1f00
0e00
1c00
1c00
0000
0000
0000
ENDCHAR
STARTCHAR ch-1
ENCODING 1
SWIDTH 600 0
DWIDTH 9 0
BBX 9 15 0 -2
BITMAP
0000
ff00
ff00
ff00
ff00
ff00
ff00
ff00
ff00
ff00
ff00
ff00
ff00
ff00
ff00
ENDCHAR
STARTCHAR ch-2
ENCODING 2
SWIDTH 600 0
DWIDTH 9 0
BBX 9 15 0 -2
BITMAP
0000
7000
8000
f000
1000
e000
1c00
0800
0800
0800
0480
0280
0300
0500
0480
ENDCHAR
STARTCHAR ch-3
ENCODING 3
SWIDTH 600 0
DWIDTH 9 0
BBX 9 15 0 -2
BITMAP
0000
e000
8000
e000
8000
e000
1c00
0800
0800
0800
0480
0280
0300
0500
0480
ENDCHAR
STARTCHAR ch-4
ENCODING 4
SWIDTH 600 0
DWIDTH 9 0
BBX 9 15 0 -2
BITMAP
0000
e000
8000
e000
8000
e000
1800
2400
2400
1800
0380
0100
0100
0100
0100
ENDCHAR
STARTCHAR ch-5
ENCODING 5
SWIDTH 600 0
DWIDTH 9 0
BBX 9 15 0 -2
BITMAP
0000
e000
8000
e000
8000
e000
1200
1a00
1600
1200
0300
0480
0480
0500
0380
ENDCHAR
STARTCHAR ch-6
ENCODING 6
SWIDTH 600 0
DWIDTH 9 0
BBX 9 15 0 -2
BITMAP
0000
6000
9000
f000
9000
9000
0c00
1000
1000
0c00
0280
0300
0300
0280
0280
ENDCHAR
STARTCHAR ch-7
ENCODING 7
SWIDTH 600 0
DWIDTH 9 0
BBX 9 15 0 -2
BITMAP
0000
0000
0000
0800
1c00
3e00
3600
3600
3600
6300
c180
ff80
1c00
0000
0000
ENDCHAR
STARTCHAR ch-8
ENCODING 8
SWIDTH 600 0
DWIDTH 9 0
BBX 9 15 0 -2
BITMAP
0000
0000
0000
7000
4800
7000
4800
7000
0700
0800
0600
0100
0e00
0000
0000
ENDCHAR
STARTCHAR ch-9
ENCODING 9
SWIDTH 600 0
DWIDTH 9 0
BBX 9 15 0 -2
BITMAP
0000
0000
0000
4800
4800
7800
4800
4800
0700
0200
0200
0200
0200
0000
0000
ENDCHAR
STARTCHAR ch-10
ENCODING 10
SWIDTH 600 0
DWIDTH 9 0
BBX 9 15 0 -2
BITMAP
0000
0000
0000
4000
4000
4000
4000
7000
0e00
0800
0e00
0800
0800
0000
0000
ENDCHAR
STARTCHAR ch-11
ENCODING 11
SWIDTH 600 0
DWIDTH 9 0
BBX 9 15 0 -2
BITMAP
0000
0000
0000
4800
4800
4800
3000
3000
0700
0200
0200
0200
0200
0000
0000
ENDCHAR
STARTCHAR ch-12
ENCODING 12
SWIDTH 600 0
DWIDTH 9 0
BBX 9 15 0 -2
BITMAP
0000
0000
0000
7000
4000
7000
4000
4000
0e00
0800
0e00
0800
0800
0000
0000
ENDCHAR
STARTCHAR ch-13
ENCODING 13
SWIDTH 600 0
DWIDTH 9 0
BBX 9 15 0 -2
BITMAP
0000
0000
0000
7000
9000
8000
9000
6000
0000
1c00
1200
1e00
1400
1200
0000
ENDCHAR
STARTCHAR ch-14
ENCODING 14
SWIDTH 600 0
DWIDTH 9 0
BBX 9 15 0 -2
BITMAP
0000
0000
0000
3800
4000
3000
0800
7000
0600
0900
0900
0900
0600
0000
0000
ENDCHAR
STARTCHAR ch-15
ENCODING 15
SWIDTH 600 0
DWIDTH 9 0
BBX 9 15 0 -2
BITMAP
0000
0000
0000
3800
4000
3000
0800
7000
0700
0200
0200
0200
0700
0000
0000
ENDCHAR
STARTCHAR ch-16
ENCODING 16
SWIDTH 600 0
DWIDTH 9 0
BBX 9 15 0 -2
BITMAP
0000
e000
9000
9000
9000
e000
1000
1000
1000
1c00
0380
0200
0300
0200
0380
ENDCHAR
STARTCHAR ch-17
ENCODING 17
SWIDTH 600 0
DWIDTH 9 0
BBX 9 15 0 -2
BITMAP
0000
e000
9000
9000
9000
e000
1c00
2400
2000
2000
1d00
0300
0100
0100
0100
ENDCHAR
STARTCHAR ch-18
ENCODING 18
SWIDTH 600 0
DWIDTH 9 0
BBX 9 15 0 -2
BITMAP
0000
e000
9000
9000
9000
e000
1c00
2400
2000
2000
1b00
0480
0100
0200
0780
ENDCHAR
STARTCHAR ch-19
ENCODING 19
SWIDTH 600 0
DWIDTH 9 0
BBX 9 15 0 -2
BITMAP
0000
e000
9000
9000
9000
e000
1c00
2400
2000
2000
1b00
0080
0300
0080
0300
ENDCHAR
STARTCHAR ch-20
ENCODING 20
SWIDTH 600 0
DWIDTH 9 0
BBX 9 15 0 -2
BITMAP
0000
e000
9000
9000
9000
e000
1c00
2400
2000
2000
1900
0300
0500
0f80
0100
ENDCHAR
STARTCHAR ch-21
ENCODING 21
SWIDTH 600 0
DWIDTH 9 0
BBX 9 15 0 -2
BITMAP
0000
9000
d000
b000
9000
9000
0c00
1200
1e00
1200
0480
0500
0600
0500
0480
ENDCHAR
STARTCHAR ch-22
ENCODING 22
SWIDTH 600 0
DWIDTH 9 0
BBX 9 15 0 -2
BITMAP
0000
7000
8000
6000
1000
e000
2200
1400
0800
0800
0480
0680
0580
0480
0480
ENDCHAR
STARTCHAR ch-23
ENCODING 23
SWIDTH 600 0
DWIDTH 9 0
BBX 9 15 0 -2
BITMAP
0000
e000
8000
e000
8000
e000
1c00
0800
0800
0800
0700
0480
0700
0480
0700
ENDCHAR
STARTCHAR ch-24
ENCODING 24
SWIDTH 600 0
DWIDTH 9 0
BBX 9 15 0 -2
BITMAP
0000
7000
9000
8000
8000
7000
0c00
1200
1e00
1200
0480
0680
0580
0480
0480
ENDCHAR
STARTCHAR ch-25
ENCODING 25
SWIDTH 600 0
DWIDTH 9 0
BBX 9 15 0 -2
BITMAP
0000
0000
0000
e000
8000
e000
8000
e000
1100
1b00
1500
1500
1100
0000
0000
ENDCHAR
STARTCHAR ch-26
ENCODING 26
SWIDTH 600 0
DWIDTH 9 0
BBX 9 15 0 -2
BITMAP
0000
7000
8000
6000
1000
e000
2400
2400
2400
1800
0700
0480
0700
0480
0700
ENDCHAR
STARTCHAR ch-27
ENCODING 27
SWIDTH 600 0
DWIDTH 9 0
BBX 9 15 0 -2
BITMAP
0000
e000
8000
e000
8000
e000
1c00
2000
1800
0400
3b80
0480
0400
0400
0380
ENDCHAR
STARTCHAR ch-28
ENCODING 28
SWIDTH 600 0
DWIDTH 9 0
BBX 9 15 0 -2
BITMAP
0000
0000
0000
7000
4000
7000
4000
4000
0e00
1000
0c00
0200
1c00
0000
0000
ENDCHAR
STARTCHAR ch-29
ENCODING 29
SWIDTH 600 0
DWIDTH 9 0
BBX 9 15 0 -2
BITMAP
0000
0000
0000
3800
4000
5800
4800
3800
0700
0800
0600
0100
0e00
0000
0000
ENDCHAR
STARTCHAR ch-30
ENCODING 30
SWIDTH 600 0
DWIDTH 9 0
BBX 9 15 0 -2
BITMAP
0000
0000
0000
7000
4800
7000
5000
4800
0700
0800
0600
0100
0e00
0000
0000
ENDCHAR
STARTCHAR ch-31
ENCODING 31
SWIDTH 600 0
DWIDTH 9 0
BBX 9 15 0 -2
BITMAP
0000
0000
0000
4800
4800
4800
4800
3000
0700
0800
0600
0100
0e00
0000
0000
ENDCHAR
STARTCHAR ch-32
ENCODING 32
SWIDTH 600 0
DWIDTH 9 0
BBX 9 15 0 -2
BITMAP
0000
0000
0000
0000
0000
0000
0000
0000
0000
0000
0000
0000
0000
0000
0000
ENDCHAR
STARTCHAR ch-33
ENCODING 33
SWIDTH 600 0
DWIDTH 9 0
BBX 9 15 0 -2
BITMAP
0000
0000
0000
1800
1800
1800
1800
1800
1800
0800
0000
1800
1800
0000
0000
ENDCHAR
STARTCHAR ch-34
ENCODING 34
SWIDTH 600 0
DWIDTH 9 0
BBX 9 15 0 -2
BITMAP
0000
0000
1200
1200
1200
0000
0000
0000
0000
0000
0000
0000
0000
0000
0000
ENDCHAR
STARTCHAR ch-35
ENCODING 35
SWIDTH 600 0
DWIDTH 9 0
BBX 9 15 0 -2
BITMAP
0000
0000
0000
2400
2400
2400
ff00
2400
2400
ff00
2400
2400
2400
0000
0000
ENDCHAR
STARTCHAR ch-36
ENCODING 36
SWIDTH 600 0
DWIDTH 9 0
BBX 9 15 0 -2
BITMAP
0000
0000
0400
3e00
6500
6400
7400
3c00
1e00
1700
1300
5300
3e00
1000
0000
ENDCHAR
STARTCHAR ch-37
ENCODING 37
SWIDTH 600 0
DWIDTH 9 0
BBX 9 15 0 -2
BITMAP
0000
0000
0000
3800
6c80
6d00
3a00
0400
0800
1700
2d80
4d80
0700
0000
0000
ENDCHAR
STARTCHAR ch-38
ENCODING 38
SWIDTH 600 0
DWIDTH 9 0
BBX 9 15 0 -2
BITMAP
0000
0000
0000
3800
6c00
6c00
6800
3300
5b00
ca00
cc00
ee00
7300
0000
0000
ENDCHAR
STARTCHAR ch-39
ENCODING 39
SWIDTH 600 0
DWIDTH 9 0
BBX 9 15 0 -2
BITMAP
0000
0000
1c00
1c00
0400
1800
0000
0000
0000
0000
0000
0000
0000
0000
0000
ENDCHAR
STARTCHAR ch-40
ENCODING 40
SWIDTH 600 0
DWIDTH 9 0
BBX 9 15 0 -2
BITMAP
0000
0000
0600
0c00
1800
1800
3000
3000
3000
3000
1800
1800
0c00
0600
0000
ENDCHAR
STARTCHAR ch-41
ENCODING 41
SWIDTH 600 0
DWIDTH 9 0
BBX 9 15 0 -2
BITMAP
0000
0000
3000
1800
0c00
0c00
0600
0600
0600
0600
0c00
0c00
1800
3000
0000
ENDCHAR
STARTCHAR ch-42
ENCODING 42
SWIDTH 600 0
DWIDTH 9 0
BBX 9 15 0 -2
BITMAP
0000
0000
0000
0800
2a00
1c00
2a00
0800
0000
0000
0000
0000
0000
0000
0000
ENDCHAR
STARTCHAR ch-43
ENCODING 43
SWIDTH 600 0
DWIDTH 9 0
BBX 9 15 0 -2
BITMAP
0000
0000
0000
0000
0000
0800
0800
0800
7f00
0800
0800
0800
0000
0000
0000
ENDCHAR
STARTCHAR ch-44
ENCODING 44
SWIDTH 600 0
DWIDTH 9 0
BBX 9 15 0 -2
BITMAP
0000
0000
0000
0000
0000
0000
0000
0000
0000
0000
0000
1c00
1c00
0400
1800
ENDCHAR
STARTCHAR ch-45
ENCODING 45
SWIDTH 600 0
DWIDTH 9 0
BBX 9 15 0 -2
BITMAP
0000
0000
0000
0000
0000
0000
0000
0000
7f00
0000
0000
0000
0000
0000
0000
ENDCHAR
STARTCHAR ch-46
ENCODING 46
SWIDTH 600 0
DWIDTH 9 0
BBX 9 15 0 -2
BITMAP
0000
0000
0000
0000
0000
0000
0000
0000
0000
0000
0000
1c00
1c00
0000
0000
ENDCHAR
STARTCHAR ch-47
ENCODING 47
SWIDTH 600 0
DWIDTH 9 0
BBX 9 15 0 -2
BITMAP
0000
0000
0300
0300
0600
0600
0c00
0c00
1800
1800
3000
3000
6000
6000
0000
ENDCHAR
STARTCHAR ch-48
ENCODING 48
SWIDTH 600 0
DWIDTH 9 0
BBX 9 15 0 -2
BITMAP
0000
0000
0000
1c00
3600
6300
6300
6300
6300
6300
6300
3600
1c00
0000
0000
ENDCHAR
STARTCHAR ch-49
ENCODING 49
SWIDTH 600 0
DWIDTH 9 0
BBX 9 15 0 -2
BITMAP
0000
0000
0000
0c00
1c00
2c00
0c00
0c00
0c00
0c00
0c00
0c00
0c00
0000
0000
ENDCHAR
STARTCHAR ch-50
ENCODING 50
SWIDTH 600 0
DWIDTH 9 0
BBX 9 15 0 -2
BITMAP
0000
0000
0000
3e00
6700
0300
0300
0600
0c00
1800
3000
7f00
7f00
0000
0000
ENDCHAR
STARTCHAR ch-51
ENCODING 51
SWIDTH 600 0
DWIDTH 9 0
BBX 9 15 0 -2
BITMAP
0000
0000
0000
3e00
6700
0300
0600
1c00
0600
0300
0300
6700
3e00
0000
0000
ENDCHAR
STARTCHAR ch-52
ENCODING 52
SWIDTH 600 0
DWIDTH 9 0
BBX 9 15 0 -2
BITMAP
0000
0000
0000
0600
0e00
1600
2600
4600
7f00
7f00
0600
0600
0600
0000
0000
ENDCHAR
STARTCHAR ch-53
ENCODING 53
SWIDTH 600 0
DWIDTH 9 0
BBX 9 15 0 -2
BITMAP
0000
0000
0000
7f00
7f00
4000
4000
7e00
0700
0300
0300
6600
3c00
0000
0000
ENDCHAR
STARTCHAR ch-54
ENCODING 54
SWIDTH 600 0
DWIDTH 9 0
BBX 9 15 0 -2
BITMAP
0000
0000
0000
1e00
3300
6000
6c00
7600
6300
6300
6300
3600
1c00
0000
0000
ENDCHAR
STARTCHAR ch-55
ENCODING 55
SWIDTH 600 0
DWIDTH 9 0
BBX 9 15 0 -2
BITMAP
0000
0000
0000
7f00
7f00
0300
0600
0c00
1800
1800
3000
3000
3000
0000
0000
ENDCHAR
STARTCHAR ch-56
ENCODING 56
SWIDTH 600 0
DWIDTH 9 0
BBX 9 15 0 -2
BITMAP
0000
0000
0000
3e00
6300
6300
7200
3c00
3e00
6700
6300
6300
3e00
0000
0000
ENDCHAR
STARTCHAR ch-57
ENCODING 57
SWIDTH 600 0
DWIDTH 9 0
BBX 9 15 0 -2
BITMAP
0000
0000
0000
1c00
3600
6300
6300
6300
3700
1b00
0300
6600
3c00
0000
0000
ENDCHAR
STARTCHAR ch-58
ENCODING 58
SWIDTH 600 0
DWIDTH 9 0
BBX 9 15 0 -2
BITMAP
0000
0000
0000
0000
0000
0000
1800
1800
0000
0000
0000
1800
1800
0000
0000
ENDCHAR
STARTCHAR ch-59
ENCODING 59
SWIDTH 600 0
DWIDTH 9 0
BBX 9 15 0 -2
BITMAP
0000
0000
0000
0000
0000
0000
1800
1800
0000
0000
0000
1800
1800
0800
1000
ENDCHAR
STARTCHAR ch-60
ENCODING 60
SWIDTH 600 0
DWIDTH 9 0
BBX 9 15 0 -2
BITMAP
0000
0000
0000
0000
0000
0600
0c00
1800
3000
1800
0c00
0600
0000
0000
0000
ENDCHAR
STARTCHAR ch-61
ENCODING 61
SWIDTH 600 0
DWIDTH 9 0
BBX 9 15 0 -2
BITMAP
0000
0000
0000
0000
0000
0000
0000
7f00
0000
7f00
0000
0000
0000
0000
0000
ENDCHAR
STARTCHAR ch-62
ENCODING 62
SWIDTH 600 0
DWIDTH 9 0
BBX 9 15 0 -2
BITMAP
0000
0000
0000
0000
0000
3000
1800
0c00
0600
0c00
1800
3000
0000
0000
0000
ENDCHAR
STARTCHAR ch-63
ENCODING 63
SWIDTH 600 0
DWIDTH 9 0
BBX 9 15 0 -2
BITMAP
0000
0000
0000
3e00
6300
0300
0300
0e00
1800
1800
0000
1800
1800
0000
0000
ENDCHAR
STARTCHAR ch-64
ENCODING 64
SWIDTH 600 0
DWIDTH 9 0
BBX 9 15 0 -2
BITMAP
0000
0000
0000
1c00
6200
4300
8f00
9b00
9b00
9b00
4d80
6000
1e00
0000
0000
ENDCHAR
STARTCHAR ch-65
ENCODING 65
SWIDTH 600 0
DWIDTH 9 0
BBX 9 15 0 -2
BITMAP
0000
0000
0000
1800
1800
2c00
2c00
6600
4600
fe00
c300
c300
c300
0000
0000
ENDCHAR
STARTCHAR ch-66
ENCODING 66
SWIDTH 600 0
DWIDTH 9 0
BBX 9 15 0 -2
BITMAP
0000
0000
0000
7c00
6600
6600
6400
7800
6400
6600
6600
6600
7c00
0000
0000
ENDCHAR
STARTCHAR ch-67
ENCODING 67
SWIDTH 600 0
DWIDTH 9 0
BBX 9 15 0 -2
BITMAP
0000
0000
0000
1e00
3300
6000
6000
6000
6000
6000
6000
3300
1e00
0000
0000
ENDCHAR
STARTCHAR ch-68
ENCODING 68
SWIDTH 600 0
DWIDTH 9 0
BBX 9 15 0 -2
BITMAP
0000
0000
0000
7c00
6600
6300
6300
6300
6300
6300
6300
6600
7c00
0000
0000
ENDCHAR
STARTCHAR ch-69
ENCODING 69
SWIDTH 600 0
DWIDTH 9 0
BBX 9 15 0 -2
BITMAP
0000
0000
0000
7e00
6000
6000
6000
7c00
6000
6000
6000
6000
7e00
0000
0000
ENDCHAR
STARTCHAR ch-70
ENCODING 70
SWIDTH 600 0
DWIDTH 9 0
BBX 9 15 0 -2
BITMAP
0000
0000
0000
7e00
6000
6000
6000
6000
7e00
6000
6000
6000
6000
0000
0000
ENDCHAR
STARTCHAR ch-71
ENCODING 71
SWIDTH 600 0
DWIDTH 9 0
BBX 9 15 0 -2
BITMAP
0000
0000
0000
1e00
3300
6000
6000
6000
6300
6300
6300
3300
1f00
0000
0000
ENDCHAR
STARTCHAR ch-72
ENCODING 72
SWIDTH 600 0
DWIDTH 9 0
BBX 9 15 0 -2
BITMAP
0000
0000
0000
6300
6300
6300
6300
7f00
6300
6300
6300
6300
6300
0000
0000
ENDCHAR
STARTCHAR ch-73
ENCODING 73
SWIDTH 600 0
DWIDTH 9 0
BBX 9 15 0 -2
BITMAP
0000
0000
0000
7e00
1800
1800
1800
1800
1800
1800
1800
1800
7e00
0000
0000
ENDCHAR
STARTCHAR ch-74
ENCODING 74
SWIDTH 600 0
DWIDTH 9 0
BBX 9 15 0 -2
BITMAP
0000
0000
0000
3e00
0600
0600
0600
0600
0600
0600
0600
0c00
7800
0000
0000
ENDCHAR
STARTCHAR ch-75
ENCODING 75
SWIDTH 600 0
DWIDTH 9 0
BBX 9 15 0 -2
BITMAP
0000
0000
0000
6300
6600
6400
6800
7800
6c00
6600
6600
6300
6300
0000
0000
ENDCHAR
STARTCHAR ch-76
ENCODING 76
SWIDTH 600 0
DWIDTH 9 0
BBX 9 15 0 -2
BITMAP
0000
0000
0000
6000
6000
6000
6000
6000
6000
6000
6000
6000
7e00
0000
0000
ENDCHAR
STARTCHAR ch-77
ENCODING 77
SWIDTH 600 0
DWIDTH 9 0
BBX 9 15 0 -2
BITMAP
0000
0000
0000
c300
c300
e700
e700
ef00
bb00
bb00
9300
8300
8300
0000
0000
ENDCHAR
STARTCHAR ch-78
ENCODING 78
SWIDTH 600 0
DWIDTH 9 0
BBX 9 15 0 -2
BITMAP
0000
0000
0000
6100
7100
7100
5900
5900
4d00
4d00
4700
4700
4300
0000
0000
ENDCHAR
STARTCHAR ch-79
ENCODING 79
SWIDTH 600 0
DWIDTH 9 0
BBX 9 15 0 -2
BITMAP
0000
0000
0000
3c00
6600
c300
c300
c300
c300
c300
c300
6600
3c00
0000
0000
ENDCHAR
STARTCHAR ch-80
ENCODING 80
SWIDTH 600 0
DWIDTH 9 0
BBX 9 15 0 -2
BITMAP
0000
0000
0000
7e00
6300
6300
6300
6600
7c00
6000
6000
6000
6000
0000
0000
ENDCHAR
STARTCHAR ch-81
ENCODING 81
SWIDTH 600 0
DWIDTH 9 0
BBX 9 15 0 -2
BITMAP
0000
0000
0000
3c00
6600
c300
c300
c300
c300
c300
c300
6600
3c00
0600
0300
ENDCHAR
STARTCHAR ch-82
ENCODING 82
SWIDTH 600 0
DWIDTH 9 0
BBX 9 15 0 -2
BITMAP
0000
0000
0000
7c00
6600
6600
6400
7800
6c00
6600
6600
6300
6300
0000
0000
ENDCHAR
STARTCHAR ch-83
ENCODING 83
SWIDTH 600 0
DWIDTH 9 0
BBX 9 15 0 -2
BITMAP
0000
0000
0000
3e00
6300
6000
7000
3c00
0e00
0700
0300
6300
3e00
0000
0000
ENDCHAR
STARTCHAR ch-84
ENCODING 84
SWIDTH 600 0
DWIDTH 9 0
BBX 9 15 0 -2
BITMAP
0000
0000
0000
ff00
1800
1800
1800
1800
1800
1800
1800
1800
1800
0000
0000
ENDCHAR
STARTCHAR ch-85
ENCODING 85
SWIDTH 600 0
DWIDTH 9 0
BBX 9 15 0 -2
BITMAP
0000
0000
0000
6300
6300
6300
6300
6300
6300
6300
6300
3600
1c00
0000
0000
ENDCHAR
STARTCHAR ch-86
ENCODING 86
SWIDTH 600 0
DWIDTH 9 0
BBX 9 15 0 -2
BITMAP
0000
0000
0000
c300
c300
c300
6200
6200
6600
3400
3400
1800
1800
0000
0000
ENDCHAR
STARTCHAR ch-87
ENCODING 87
SWIDTH 600 0
DWIDTH 9 0
BBX 9 15 0 -2
BITMAP
0000
0000
0000
c300
c300
db00
db00
db00
da00
6e00
6e00
6600
6600
0000
0000
ENDCHAR
STARTCHAR ch-88
ENCODING 88
SWIDTH 600 0
DWIDTH 9 0
BBX 9 15 0 -2
BITMAP
0000
0000
0000
6300
6300
6300
3200
1c00
1c00
2600
6300
6300
6300
0000
0000
ENDCHAR
STARTCHAR ch-89
ENCODING 89
SWIDTH 600 0
DWIDTH 9 0
BBX 9 15 0 -2
BITMAP
0000
0000
0000
c300
c300
6200
6600
3400
1800
1800
1800
1800
1800
0000
0000
ENDCHAR
STARTCHAR ch-90
ENCODING 90
SWIDTH 600 0
DWIDTH 9 0
BBX 9 15 0 -2
BITMAP
0000
0000
0000
7f00
0300
0600
0c00
0c00
1800
3000
3000
6000
7f00
0000
0000
ENDCHAR
STARTCHAR ch-91
ENCODING 91
SWIDTH 600 0
DWIDTH 9 0
BBX 9 15 0 -2
BITMAP
0000
0000
3e00
3000
3000
3000
3000
3000
3000
3000
3000
3000
3000
3e00
0000
ENDCHAR
STARTCHAR ch-92
ENCODING 92
SWIDTH 600 0
DWIDTH 9 0
BBX 9 15 0 -2
BITMAP
0000
0000
6000
6000
3000
3000
1800
1800
0c00
0c00
0600
0600
0300
0300
0000
ENDCHAR
STARTCHAR ch-93
ENCODING 93
SWIDTH 600 0
DWIDTH 9 0
BBX 9 15 0 -2
BITMAP
0000
0000
3e00
0600
0600
0600
0600
0600
0600
0600
0600
0600
0600
3e00
0000
ENDCHAR
STARTCHAR ch-94
ENCODING 94
SWIDTH 600 0
DWIDTH 9 0
BBX 9 15 0 -2
BITMAP
0000
0000
0000
0000
0c00
0c00
1e00
1200
3300
2100
2100
0000
0000
0000
0000
ENDCHAR
STARTCHAR ch-95
ENCODING 95
SWIDTH 600 0
DWIDTH 9 0
BBX 9 15 0 -2
BITMAP
0000
0000
0000
0000
0000
0000
0000
0000
0000
0000
0000
0000
0000
ff80
0000
ENDCHAR
STARTCHAR ch-96
ENCODING 96
SWIDTH 600 0
DWIDTH 9 0
BBX 9 15 0 -2
BITMAP
0000
0000
0c00
1000
1c00
1c00
0000
0000
0000
0000
0000
0000
0000
0000
0000
ENDCHAR
STARTCHAR ch-97
ENCODING 97
SWIDTH 600 0
DWIDTH 9 0
BBX 9 15 0 -2
BITMAP
0000
0000
0000
0000
0000
7c00
0600
0600
7e00
c600
c600
ce00
7700
0000
0000
ENDCHAR
STARTCHAR ch-98
ENCODING 98
SWIDTH 600 0
DWIDTH 9 0
BBX 9 15 0 -2
BITMAP
0000
0000
6000
6000
6000
6c00
7600
6300
6300
6300
6300
6600
7c00
0000
0000
ENDCHAR
STARTCHAR ch-99
ENCODING 99
SWIDTH 600 0
DWIDTH 9 0
BBX 9 15 0 -2
BITMAP
0000
0000
0000
0000
0000
1e00
3100
6000
6000
6000
6000
3100
1e00
0000
0000
ENDCHAR
STARTCHAR ch-100
ENCODING 100
SWIDTH 600 0
DWIDTH 9 0
BBX 9 15 0 -2
BITMAP
0000
0000
0300
0300
0300
1f00
3300
6300
6300
6300
6300
3700
1b00
0000
0000
ENDCHAR
STARTCHAR ch-101
ENCODING 101
SWIDTH 600 0
DWIDTH 9 0
BBX 9 15 0 -2
BITMAP
0000
0000
0000
0000
0000
1e00
3300
6300
7f00
6000
6000
3100
1e00
0000
0000
ENDCHAR
STARTCHAR ch-102
ENCODING 102
SWIDTH 600 0
DWIDTH 9 0
BBX 9 15 0 -2
BITMAP
0000
0000
0f00
1800
1800
1800
7f00
1800
1800
1800
1800
1800
1800
0000
0000
ENDCHAR
STARTCHAR ch-103
ENCODING 103
SWIDTH 600 0
DWIDTH 9 0
BBX 9 15 0 -2
BITMAP
0000
0000
0000
0000
0000
1f00
3300
6300
6300
6300
3700
1b00
0300
6600
3c00
ENDCHAR
STARTCHAR ch-104
ENCODING 104
SWIDTH 600 0
DWIDTH 9 0
BBX 9 15 0 -2
BITMAP
0000
0000
6000
6000
6000
6e00
7700
6300
6300
6300
6300
6300
6300
0000
0000
ENDCHAR
STARTCHAR ch-105
ENCODING 105
SWIDTH 600 0
DWIDTH 9 0
BBX 9 15 0 -2
BITMAP
0000
0000
0c00
0c00
0000
7c00
0c00
0c00
0c00
0c00
0c00
0c00
0c00
0000
0000
ENDCHAR
STARTCHAR ch-106
ENCODING 106
SWIDTH 600 0
DWIDTH 9 0
BBX 9 15 0 -2
BITMAP
0000
0000
0600
0600
0000
3e00
0600
0600
0600
0600
0600
0600
0600
0600
7c00
ENDCHAR
STARTCHAR ch-107
ENCODING 107
SWIDTH 600 0
DWIDTH 9 0
BBX 9 15 0 -2
BITMAP
0000
0000
6000
6000
6000
6300
6200
6400
7800
6c00
6600
6300
6380
0000
0000
ENDCHAR
STARTCHAR ch-108
ENCODING 108
SWIDTH 600 0
DWIDTH 9 0
BBX 9 15 0 -2
BITMAP
0000
0000
7c00
0c00
0c00
0c00
0c00
0c00
0c00
0c00
0c00
0c00
0c00
0000
0000
ENDCHAR
STARTCHAR ch-109
ENCODING 109
SWIDTH 600 0
DWIDTH 9 0
BBX 9 15 0 -2
BITMAP
0000
0000
0000
0000
0000
b600
db00
db00
db00
db00
db00
db00
db00
0000
0000
ENDCHAR
STARTCHAR ch-110
ENCODING 110
SWIDTH 600 0
DWIDTH 9 0
BBX 9 15 0 -2
BITMAP
0000
0000
0000
0000
0000
6e00
7700
6300
6300
6300
6300
6300
6300
0000
0000
ENDCHAR
STARTCHAR ch-111
ENCODING 111
SWIDTH 600 0
DWIDTH 9 0
BBX 9 15 0 -2
BITMAP
0000
0000
0000
0000
0000
1c00
3600
6300
6300
6300
6300
3600
1c00
0000
0000
ENDCHAR
STARTCHAR ch-112
ENCODING 112
SWIDTH 600 0
DWIDTH 9 0
BBX 9 15 0 -2
BITMAP
0000
0000
0000
0000
0000
6c00
7600
6300
6300
6300
6300
6600
7c00
6000
6000
ENDCHAR
STARTCHAR ch-113
ENCODING 113
SWIDTH 600 0
DWIDTH 9 0
BBX 9 15 0 -2
BITMAP
0000
0000
0000
0000
0000
1f00
3300
6300
6300
6300
6300
3700
1b00
0300
0300
ENDCHAR
STARTCHAR ch-114
ENCODING 114
SWIDTH 600 0
DWIDTH 9 0
BBX 9 15 0 -2
BITMAP
0000
0000
0000
0000
0000
3300
3700
3900
3000
3000
3000
3000
3000
0000
0000
ENDCHAR
STARTCHAR ch-115
ENCODING 115
SWIDTH 600 0
DWIDTH 9 0
BBX 9 15 0 -2
BITMAP
0000
0000
0000
0000
0000
3e00
6100
6000
7c00
1f00
0300
4300
3e00
0000
0000
ENDCHAR
STARTCHAR ch-116
ENCODING 116
SWIDTH 600 0
DWIDTH 9 0
BBX 9 15 0 -2
BITMAP
0000
0000
0000
1800
1800
1800
7f00
1800
1800
1800
1800
1800
0f00
0000
0000
ENDCHAR
STARTCHAR ch-117
ENCODING 117
SWIDTH 600 0
DWIDTH 9 0
BBX 9 15 0 -2
BITMAP
0000
0000
0000
0000
0000
6300
6300
6300
6300
6300
6300
7700
3b00
0000
0000
ENDCHAR
STARTCHAR ch-118
ENCODING 118
SWIDTH 600 0
DWIDTH 9 0
BBX 9 15 0 -2
BITMAP
0000
0000
0000
0000
0000
6300
6300
6300
3600
3600
3400
1c00
1800
0000
0000
ENDCHAR
STARTCHAR ch-119
ENCODING 119
SWIDTH 600 0
DWIDTH 9 0
BBX 9 15 0 -2
BITMAP
0000
0000
0000
0000
0000
c100
c100
c900
dd00
dd00
6600
6600
6600
0000
0000
ENDCHAR
STARTCHAR ch-120
ENCODING 120
SWIDTH 600 0
DWIDTH 9 0
BBX 9 15 0 -2
BITMAP
0000
0000
0000
0000
0000
6300
6300
3200
1c00
1c00
2600
6300
6300
0000
0000
ENDCHAR
STARTCHAR ch-121
ENCODING 121
SWIDTH 600 0
DWIDTH 9 0
BBX 9 15 0 -2
BITMAP
0000
0000
0000
0000
0000
6300
6300
6300
3600
3600
1c00
1800
1800
3000
3000
ENDCHAR
STARTCHAR ch-122
ENCODING 122
SWIDTH 600 0
DWIDTH 9 0
BBX 9 15 0 -2
BITMAP
0000
0000
0000
0000
0000
7f00
0300
0600
0c00
1800
3000
6000
7f00
0000
0000
ENDCHAR
STARTCHAR ch-123
ENCODING 123
SWIDTH 600 0
DWIDTH 9 0
BBX 9 15 0 -2
BITMAP
0000
0000
0f00
1800
1800
0c00
0400
3800
0400
0c00
1800
1800
1800
0f00
0000
ENDCHAR
STARTCHAR ch-124
ENCODING 124
SWIDTH 600 0
DWIDTH 9 0
BBX 9 15 0 -2
BITMAP
0000
0000
0c00
0c00
0c00
0c00
0c00
0c00
0c00
0c00
0c00
0c00
0c00
0c00
0000
ENDCHAR
STARTCHAR ch-125
ENCODING 125
SWIDTH 600 0
DWIDTH 9 0
BBX 9 15 0 -2
BITMAP
0000
0000
7800
0c00
0c00
1800
1000
0e00
1000
1800
0c00
0c00
0c00
7800
0000
ENDCHAR
STARTCHAR ch-126
ENCODING 126
SWIDTH 600 0
DWIDTH 9 0
BBX 9 15 0 -2
BITMAP
0000
0000
0000
0000
0000
0000
0000
3900
5d00
4e00
0000
0000
0000
0000
0000
ENDCHAR
STARTCHAR ch-127
ENCODING 127
SWIDTH 600 0
DWIDTH 9 0
BBX 9 15 0 -2
BITMAP
0000
5500
aa00
5500
aa00
5500
aa00
5500
aa00
5500
aa00
5500
aa00
0000
0000
ENDCHAR
STARTCHAR ch-128
ENCODING 128
SWIDTH 600 0
DWIDTH 9 0
BBX 9 15 0 -2
BITMAP
ff80
8080
9c80
b680
8680
8680
8c80
9880
9880
8080
9880
9880
8080
ff80
0000
ENDCHAR
STARTCHAR ch-129
ENCODING 129
SWIDTH 600 0
DWIDTH 9 0
BBX 9 15 0 -2
BITMAP
ff80
8080
8080
8080
8080
8080
8080
8080
8080
8080
8080
8080
8080
8080
ff80
ENDCHAR
STARTCHAR ch-130
ENCODING 130
SWIDTH 600 0
DWIDTH 9 0
BBX 9 15 0 -2
BITMAP
ff80
8f80
7f80
0f80
ef80
1f80
e380
f780
f780
f780
fb00
fd00
fc80
fa80
fb00
ENDCHAR
STARTCHAR ch-131
ENCODING 131
SWIDTH 600 0
DWIDTH 9 0
BBX 9 15 0 -2
BITMAP
ff80
1f80
7f80
1f80
7f80
1f80
e380
f780
f780
f780
fb00
fd00
fc80
fa80
fb00
ENDCHAR
STARTCHAR ch-132
ENCODING 132
SWIDTH 600 0
DWIDTH 9 0
BBX 9 15 0 -2
BITMAP
ff80
1f80
7f80
1f80
7f80
1f80
e780
db80
db80
e780
fc00
fe80
fe80
fe80
fe80
ENDCHAR
STARTCHAR ch-133
ENCODING 133
SWIDTH 600 0
DWIDTH 9 0
BBX 9 15 0 -2
BITMAP
ff80
1f80
7f80
1f80
7f80
1f80
ed80
e580
e980
ed80
fc80
fb00
fb00
fa80
fc00
ENDCHAR
STARTCHAR ch-134
ENCODING 134
SWIDTH 600 0
DWIDTH 9 0
BBX 9 15 0 -2
BITMAP
ff80
9f80
6f80
0f80
6f80
6f80
f380
ef80
ef80
f380
fd00
fc80
fc80
fd00
fd00
ENDCHAR
STARTCHAR ch-135
ENCODING 135
SWIDTH 600 0
DWIDTH 9 0
BBX 9 15 0 -2
BITMAP
ff80
ff80
ff80
f780
e380
c180
c980
c980
c980
9c80
3e00
0000
e380
ff80
ff80
ENDCHAR
STARTCHAR ch-136
ENCODING 136
SWIDTH 600 0
DWIDTH 9 0
BBX 9 15 0 -2
BITMAP
ff80
ff80
ff80
8f80
b780
8f80
b780
8f80
f880
f780
f980
fe80
f180
ff80
ff80
ENDCHAR
STARTCHAR ch-137
ENCODING 137
SWIDTH 600 0
DWIDTH 9 0
BBX 9 15 0 -2
BITMAP
ff80
ff80
ff80
b780
b780
8780
b780
b780
f880
fd80
fd80
fd80
fd80
ff80
ff80
ENDCHAR
STARTCHAR ch-138
ENCODING 138
SWIDTH 600 0
DWIDTH 9 0
BBX 9 15 0 -2
BITMAP
ff80
ff80
ff80
bf80
bf80
bf80
bf80
8f80
f180
f780
f180
f780
f780
ff80
ff80
ENDCHAR
STARTCHAR ch-139
ENCODING 139
SWIDTH 600 0
DWIDTH 9 0
BBX 9 15 0 -2
BITMAP
ff80
ff80
ff80
b780
b780
b780
cf80
cf80
f880
fd80
fd80
fd80
fd80
ff80
ff80
ENDCHAR
STARTCHAR ch-140
ENCODING 140
SWIDTH 600 0
DWIDTH 9 0
BBX 9 15 0 -2
BITMAP
ff80
ff80
ff80
8f80
bf80
8f80
bf80
bf80
f180
f780
f180
f780
f780
ff80
ff80
ENDCHAR
STARTCHAR ch-141
ENCODING 141
SWIDTH 600 0
DWIDTH 9 0
BBX 9 15 0 -2
BITMAP
ff80
8f80
6f80
7f80
6f80
9f80
ff80
e380
ed80
e180
eb80
ed80
ff80
ff80
ff80
ENDCHAR
STARTCHAR ch-142
ENCODING 142
SWIDTH 600 0
DWIDTH 9 0
BBX 9 15 0 -2
BITMAP
ff80
ff80
ff80
c780
bf80
cf80
f780
8f80
f980
f680
f680
f680
f980
ff80
ff80
ENDCHAR
STARTCHAR ch-143
ENCODING 143
SWIDTH 600 0
DWIDTH 9 0
BBX 9 15 0 -2
BITMAP
ff80
ff80
ff80
c780
bf80
cf80
f780
8f80
f880
fd80
fd80
fd80
f880
ff80
ff80
ENDCHAR
STARTCHAR ch-144
ENCODING 144
SWIDTH 600 0
DWIDTH 9 0
BBX 9 15 0 -2
BITMAP
ff80
1f80
6f80
6f80
6f80
1f80
ef80
ef80
ef80
e380
fc00
fd80
fc80
fd80
fc00
ENDCHAR
STARTCHAR ch-145
ENCODING 145
SWIDTH 600 0
DWIDTH 9 0
BBX 9 15 0 -2
BITMAP
ff80
1f80
6f80
6f80
6f80
1f80
e380
db80
df80
df80
e280
fc80
fe80
fe80
fe80
ENDCHAR
STARTCHAR ch-146
ENCODING 146
SWIDTH 600 0
DWIDTH 9 0
BBX 9 15 0 -2
BITMAP
ff80
1f80
6f80
6f80
6f80
1f80
e380
db80
df80
df80
e480
fb00
fe80
fd80
f800
ENDCHAR
STARTCHAR ch-147
ENCODING 147
SWIDTH 600 0
DWIDTH 9 0
BBX 9 15 0 -2
BITMAP
ff80
1f80
6f80
6f80
6f80
1f80
e380
db80
df80
df80
e480
ff00
fc80
ff00
fc80
ENDCHAR
STARTCHAR ch-148
ENCODING 148
SWIDTH 600 0
DWIDTH 9 0
BBX 9 15 0 -2
BITMAP
ff80
1f80
6f80
6f80
6f80
1f80
e380
db80
df80
df80
e680
fc80
fa80
f000
fe80
ENDCHAR
STARTCHAR ch-149
ENCODING 149
SWIDTH 600 0
DWIDTH 9 0
BBX 9 15 0 -2
BITMAP
ff80
6f80
2f80
4f80
6f80
6f80
f380
ed80
e180
ed80
fb00
fa80
f980
fa80
fb00
ENDCHAR
STARTCHAR ch-150
ENCODING 150
SWIDTH 600 0
DWIDTH 9 0
BBX 9 15 0 -2
BITMAP
ff80
8f80
7f80
9f80
ef80
1f80
dd80
eb80
f780
f780
fb00
f900
fa00
fb00
fb00
ENDCHAR
STARTCHAR ch-151
ENCODING 151
SWIDTH 600 0
DWIDTH 9 0
BBX 9 15 0 -2
BITMAP
ff80
1f80
7f80
1f80
7f80
1f80
e380
f780
f780
f780
f880
fb00
f880
fb00
f880
ENDCHAR
STARTCHAR ch-152
ENCODING 152
SWIDTH 600 0
DWIDTH 9 0
BBX 9 15 0 -2
BITMAP
ff80
8f80
6f80
7f80
7f80
8f80
f380
ed80
e180
ed80
fb00
f900
fa00
fb00
fb00
ENDCHAR
STARTCHAR ch-153
ENCODING 153
SWIDTH 600 0
DWIDTH 9 0
BBX 9 15 0 -2
BITMAP
ff80
ff80
ff80
1f80
7f80
1f80
7f80
1f80
ee80
e480
ea80
ea80
ee80
ff80
ff80
ENDCHAR
STARTCHAR ch-154
ENCODING 154
SWIDTH 600 0
DWIDTH 9 0
BBX 9 15 0 -2
BITMAP
ff80
8f80
7f80
9f80
ef80
1f80
db80
db80
db80
e780
f880
fb00
f880
fb00
f880
ENDCHAR
STARTCHAR ch-155
ENCODING 155
SWIDTH 600 0
DWIDTH 9 0
BBX 9 15 0 -2
BITMAP
ff80
1f80
7f80
1f80
7f80
1f80
e380
df80
e780
fb80
c400
fb00
fb80
fb80
fc00
ENDCHAR
STARTCHAR ch-156
ENCODING 156
SWIDTH 600 0
DWIDTH 9 0
BBX 9 15 0 -2
BITMAP
ff80
ff80
ff80
8f80
bf80
8f80
bf80
bf80
f180
ef80
f380
fd80
e380
ff80
ff80
ENDCHAR
STARTCHAR ch-157
ENCODING 157
SWIDTH 600 0
DWIDTH 9 0
BBX 9 15 0 -2
BITMAP
ff80
ff80
ff80
c780
bf80
a780
b780
c780
f880
f780
f980
fe80
f180
ff80
ff80
ENDCHAR
STARTCHAR ch-158
ENCODING 158
SWIDTH 600 0
DWIDTH 9 0
BBX 9 15 0 -2
BITMAP
ff80
ff80
ff80
8f80
b780
8f80
af80
b780
f880
f780
f980
fe80
f180
ff80
ff80
ENDCHAR
STARTCHAR ch-159
ENCODING 159
SWIDTH 600 0
DWIDTH 9 0
BBX 9 15 0 -2
BITMAP
ff80
ff80
ff80
b780
b780
b780
b780
cf80
f880
f780
f980
fe80
f180
ff80
ff80
ENDCHAR
STARTCHAR ch-160
ENCODING 160
SWIDTH 600 0
DWIDTH 9 0
BBX 9 15 0 -2
BITMAP
ff00
0000
ff00
0000
ff00
0000
ff00
0000
ff00
0000
ff00
0000
ff00
0000
0000
ENDCHAR
STARTCHAR ch-161
ENCODING 161
SWIDTH 600 0
DWIDTH 9 0
BBX 9 15 0 -2
BITMAP
0000
0000
0000
0000
0000
1800
1800
0000
1000
1800
1800
1800
1800
1800
1800
ENDCHAR
STARTCHAR ch-162
ENCODING 162
SWIDTH 600 0
DWIDTH 9 0
BBX 9 15 0 -2
BITMAP
0000
0000
0400
0400
1e00
3500
6400
6400
6400
6400
3400
1f00
0400
0400
0000
ENDCHAR
STARTCHAR ch-163
ENCODING 163
SWIDTH 600 0
DWIDTH 9 0
BBX 9 15 0 -2
BITMAP
0000
0000
0000
0e00
1900
1800
1800
7e00
1800
1800
1800
3000
7f00
0000
0000
ENDCHAR
STARTCHAR ch-164
ENCODING 164
SWIDTH 600 0
DWIDTH 9 0
BBX 9 15 0 -2
BITMAP
0000
0000
0000
8080
4100
3e00
3600
6300
6300
3600
3e00
4100
8080
0000
0000
ENDCHAR
STARTCHAR ch-165
ENCODING 165
SWIDTH 600 0
DWIDTH 9 0
BBX 9 15 0 -2
BITMAP
0000
0000
0000
6180
6180
3100
3300
1a00
3f00
0c00
3f00
0c00
0c00
0000
0000
ENDCHAR
STARTCHAR ch-166
ENCODING 166
SWIDTH 600 0
DWIDTH 9 0
BBX 9 15 0 -2
BITMAP
0000
0000
0c00
0c00
0c00
0c00
0c00
0000
0000
0c00
0c00
0c00
0c00
0c00
0000
ENDCHAR
STARTCHAR ch-167
ENCODING 167
SWIDTH 600 0
DWIDTH 9 0
BBX 9 15 0 -2
BITMAP
0000
0000
0000
3e00
6300
6000
3c00
6600
6300
3300
1e00
0300
6300
3e00
0000
ENDCHAR
STARTCHAR ch-168
ENCODING 168
SWIDTH 600 0
DWIDTH 9 0
BBX 9 15 0 -2
BITMAP
0000
0000
1400
1400
0000
0000
0000
0000
0000
0000
0000
0000
0000
0000
0000
ENDCHAR
STARTCHAR ch-169
ENCODING 169
SWIDTH 600 0
DWIDTH 9 0
BBX 9 15 0 -2
BITMAP
0000
0000
0000
1e00
2100
4e80
5080
5080
5080
5080
4e80
2100
1e00
0000
0000
ENDCHAR
STARTCHAR ch-170
ENCODING 170
SWIDTH 600 0
DWIDTH 9 0
BBX 9 15 0 -2
BITMAP
0000
0000
0000
3c00
0600
0600
3e00
6600
6e00
3700
0000
0000
0000
0000
0000
ENDCHAR
STARTCHAR ch-171
ENCODING 171
SWIDTH 600 0
DWIDTH 9 0
BBX 9 15 0 -2
BITMAP
0000
0000
0000
0000
0000
0000
1980
3300
6600
3300
1980
0000
0000
0000
0000
ENDCHAR
STARTCHAR ch-172
ENCODING 172
SWIDTH 600 0
DWIDTH 9 0
BBX 9 15 0 -2
BITMAP
0000
0000
0000
0000
0000
0000
0000
7f00
0100
0100
0000
0000
0000
0000
0000
ENDCHAR
STARTCHAR ch-173
ENCODING 173
SWIDTH 600 0
DWIDTH 9 0
BBX 9 15 0 -2
BITMAP
0000
0000
0000
0000
0000
0000
0000
0000
3e00
0000
0000
0000
0000
0000
0000
ENDCHAR
STARTCHAR ch-174
ENCODING 174
SWIDTH 600 0
DWIDTH 9 0
BBX 9 15 0 -2
BITMAP
0000
0000
0000
1e00
2100
5c80
5280
5c80
5280
2100
1e00
0000
0000
0000
0000
ENDCHAR
STARTCHAR ch-175
ENCODING 175
SWIDTH 600 0
DWIDTH 9 0
BBX 9 15 0 -2
BITMAP
0000
0000
1c00
0000
0000
0000
0000
0000
0000
0000
0000
0000
0000
0000
0000
ENDCHAR
STARTCHAR ch-176
ENCODING 176
SWIDTH 600 0
DWIDTH 9 0
BBX 9 15 0 -2
BITMAP
0000
0000
0000
1c00
2200
2200
1c00
0000
0000
0000
0000
0000
0000
0000
0000
ENDCHAR
STARTCHAR ch-177
ENCODING 177
SWIDTH 600 0
DWIDTH 9 0
BBX 9 15 0 -2
BITMAP
0000
0000
0000
0000
0000
0800
0800
7f00
0800
0800
0000
7f00
0000
0000
0000
ENDCHAR
STARTCHAR ch-178
ENCODING 178
SWIDTH 600 0
DWIDTH 9 0
BBX 9 15 0 -2
BITMAP
0000
0000
0000
3c00
0600
0600
0c00
1800
3000
3e00
0000
0000
0000
0000
0000
ENDCHAR
STARTCHAR ch-179
ENCODING 179
SWIDTH 600 0
DWIDTH 9 0
BBX 9 15 0 -2
BITMAP
0000
0000
0000
3c00
0600
0600
1c00
0600
0600
3c00
0000
0000
0000
0000
0000
ENDCHAR
STARTCHAR ch-180
ENCODING 180
SWIDTH 600 0
DWIDTH 9 0
BBX 9 15 0 -2
BITMAP
0000
0000
0600
1800
0000
0000
0000
0000
0000
0000
0000
0000
0000
0000
0000
ENDCHAR
STARTCHAR ch-181
ENCODING 181
SWIDTH 600 0
DWIDTH 9 0
BBX 9 15 0 -2
BITMAP
0000
0000
0000
0000
0000
6300
6300
6300
6300
6300
6300
7700
7b00
6000
6000
ENDCHAR
STARTCHAR ch-182
ENCODING 182
SWIDTH 600 0
DWIDTH 9 0
BBX 9 15 0 -2
BITMAP
0000
0000
0000
1f00
3d00
3d00
3d00
3d00
1d00
0500
0500
0500
0500
0500
0000
ENDCHAR
STARTCHAR ch-183
ENCODING 183
SWIDTH 600 0
DWIDTH 9 0
BBX 9 15 0 -2
BITMAP
0000
0000
0000
0000
0000
0000
0000
0000
1c00
1c00
0000
0000
0000
0000
0000
ENDCHAR
STARTCHAR ch-184
ENCODING 184
SWIDTH 600 0
DWIDTH 9 0
BBX 9 15 0 -2
BITMAP
0000
0000
0000
0000
0000
0000
0000
0000
0000
0000
0000
0000
0000
0800
3000
ENDCHAR
STARTCHAR ch-185
ENCODING 185
SWIDTH 600 0
DWIDTH 9 0
BBX 9 15 0 -2
BITMAP
0000
0000
0000
3800
5800
1800
1800
1800
1800
7e00
0000
0000
0000
0000
0000
ENDCHAR
STARTCHAR ch-186
ENCODING 186
SWIDTH 600 0
DWIDTH 9 0
BBX 9 15 0 -2
BITMAP
0000
0000
0000
3e00
6300
6300
6300
6300
6300
3e00
0000
0000
0000
0000
0000
ENDCHAR
STARTCHAR ch-187
ENCODING 187
SWIDTH 600 0
DWIDTH 9 0
BBX 9 15 0 -2
BITMAP
0000
0000
0000
0000
0000
0000
cc00
6600
3300
6600
cc00
0000
0000
0000
0000
ENDCHAR
STARTCHAR ch-188
ENCODING 188
SWIDTH 600 0
DWIDTH 9 0
BBX 9 15 0 -2
BITMAP
0000
0000
0000
4400
c400
4800
4800
5300
5500
2900
2f80
4100
4100
0000
0000
ENDCHAR
STARTCHAR ch-189
ENCODING 189
SWIDTH 600 0
DWIDTH 9 0
BBX 9 15 0 -2
BITMAP
0000
0000
0000
4400
c400
4800
4800
5000
5700
1080
1300
2400
2780
0000
0000
ENDCHAR
STARTCHAR ch-190
ENCODING 190
SWIDTH 600 0
DWIDTH 9 0
BBX 9 15 0 -2
BITMAP
0000
0000
0000
e400
2400
c800
2800
d300
1500
2900
2f80
4100
4100
0000
0000
ENDCHAR
STARTCHAR ch-191
ENCODING 191
SWIDTH 600 0
DWIDTH 9 0
BBX 9 15 0 -2
BITMAP
0000
0000
0000
0000
0000
0c00
0c00
0000
0c00
0c00
3800
6000
6000
6300
3e00
ENDCHAR
STARTCHAR ch-192
ENCODING 192
SWIDTH 600 0
DWIDTH 9 0
BBX 9 15 0 -2
BITMAP
3000
0c00
0000
1800
1800
2c00
2c00
6600
4600
fe00
c300
c300
c300
0000
0000
ENDCHAR
STARTCHAR ch-193
ENCODING 193
SWIDTH 600 0
DWIDTH 9 0
BBX 9 15 0 -2
BITMAP
0c00
3000
0000
1800
1800
2c00
2c00
6600
4600
fe00
c300
c300
c300
0000
0000
ENDCHAR
STARTCHAR ch-194
ENCODING 194
SWIDTH 600 0
DWIDTH 9 0
BBX 9 15 0 -2
BITMAP
1800
2400
0000
1800
1800
2c00
2c00
6600
4600
fe00
c300
c300
c300
0000
0000
ENDCHAR
STARTCHAR ch-195
ENCODING 195
SWIDTH 600 0
DWIDTH 9 0
BBX 9 15 0 -2
BITMAP
1a00
2c00
0000
1800
1800
2c00
2c00
6600
4600
fe00
c300
c300
c300
0000
0000
ENDCHAR
STARTCHAR ch-196
ENCODING 196
SWIDTH 600 0
DWIDTH 9 0
BBX 9 15 0 -2
BITMAP
2400
2400
0000
1800
1800
2c00
2c00
6600
4600
fe00
c300
c300
c300
0000
0000
ENDCHAR
STARTCHAR ch-197
ENCODING 197
SWIDTH 600 0
DWIDTH 9 0
BBX 9 15 0 -2
BITMAP
0000
1800
2400
1800
1800
2c00
2c00
6600
4600
fe00
c300
c300
c300
0000
0000
ENDCHAR
STARTCHAR ch-198
ENCODING 198
SWIDTH 600 0
DWIDTH 9 0
BBX 9 15 0 -2
BITMAP
0000
0000
0000
0f00
1c00
2c00
2c00
6f00
4c00
7c00
cc00
cc00
cf00
0000
0000
ENDCHAR
STARTCHAR ch-199
ENCODING 199
SWIDTH 600 0
DWIDTH 9 0
BBX 9 15 0 -2
BITMAP
0000
0000
0000
1e00
3300
6000
6000
6000
6000
6000
6000
3300
1e00
0400
1800
ENDCHAR
STARTCHAR ch-200
ENCODING 200
SWIDTH 600 0
DWIDTH 9 0
BBX 9 15 0 -2
BITMAP
1800
0600
0000
3f00
3000
3000
3000
3e00
3000
3000
3000
3000
3f00
0000
0000
ENDCHAR
STARTCHAR ch-201
ENCODING 201
SWIDTH 600 0
DWIDTH 9 0
BBX 9 15 0 -2
BITMAP
0600
1800
0000
3f00
3000
3000
3000
3e00
3000
3000
3000
3000
3f00
0000
0000
ENDCHAR
STARTCHAR ch-202
ENCODING 202
SWIDTH 600 0
DWIDTH 9 0
BBX 9 15 0 -2
BITMAP
0c00
1200
0000
3f00
3000
3000
3000
3e00
3000
3000
3000
3000
3f00
0000
0000
ENDCHAR
STARTCHAR ch-203
ENCODING 203
SWIDTH 600 0
DWIDTH 9 0
BBX 9 15 0 -2
BITMAP
1200
1200
0000
3f00
3000
3000
3000
3e00
3000
3000
3000
3000
3f00
0000
0000
ENDCHAR
STARTCHAR ch-204
ENCODING 204
SWIDTH 600 0
DWIDTH 9 0
BBX 9 15 0 -2
BITMAP
3000
0c00
0000
7e00
1800
1800
1800
1800
1800
1800
1800
1800
7e00
0000
0000
ENDCHAR
STARTCHAR ch-205
ENCODING 205
SWIDTH 600 0
DWIDTH 9 0
BBX 9 15 0 -2
BITMAP
0c00
3000
0000
7e00
1800
1800
1800
1800
1800
1800
1800
1800
7e00
0000
0000
ENDCHAR
STARTCHAR ch-206
ENCODING 206
SWIDTH 600 0
DWIDTH 9 0
BBX 9 15 0 -2
BITMAP
1800
2400
0000
7e00
1800
1800
1800
1800
1800
1800
1800
1800
7e00
0000
0000
ENDCHAR
STARTCHAR ch-207
ENCODING 207
SWIDTH 600 0
DWIDTH 9 0
BBX 9 15 0 -2
BITMAP
2400
2400
0000
7e00
1800
1800
1800
1800
1800
1800
1800
1800
7e00
0000
0000
ENDCHAR
STARTCHAR ch-208
ENCODING 208
SWIDTH 600 0
DWIDTH 9 0
BBX 9 15 0 -2
BITMAP
0000
0000
0000
7c00
6600
6300
6300
fb00
6300
6300
6300
6600
7c00
0000
0000
ENDCHAR
STARTCHAR ch-209
ENCODING 209
SWIDTH 600 0
DWIDTH 9 0
BBX 9 15 0 -2
BITMAP
1a00
2c00
0000
6100
7100
7100
5900
5900
4d00
4d00
4700
4700
4300
0000
0000
ENDCHAR
STARTCHAR ch-210
ENCODING 210
SWIDTH 600 0
DWIDTH 9 0
BBX 9 15 0 -2
BITMAP
3000
0c00
0000
3c00
6600
c300
c300
c300
c300
c300
c300
6600
3c00
0000
0000
ENDCHAR
STARTCHAR ch-211
ENCODING 211
SWIDTH 600 0
DWIDTH 9 0
BBX 9 15 0 -2
BITMAP
0c00
3000
0000
3c00
6600
c300
c300
c300
c300
c300
c300
6600
3c00
0000
0000
ENDCHAR
STARTCHAR ch-212
ENCODING 212
SWIDTH 600 0
DWIDTH 9 0
BBX 9 15 0 -2
BITMAP
1800
2400
0000
3c00
6600
c300
c300
c300
c300
c300
c300
6600
3c00
0000
0000
ENDCHAR
STARTCHAR ch-213
ENCODING 213
SWIDTH 600 0
DWIDTH 9 0
BBX 9 15 0 -2
BITMAP
1a00
2c00
0000
3c00
6600
c300
c300
c300
c300
c300
c300
6600
3c00
0000
0000
ENDCHAR
STARTCHAR ch-214
ENCODING 214
SWIDTH 600 0
DWIDTH 9 0
BBX 9 15 0 -2
BITMAP
2400
2400
0000
3c00
6600
c300
c300
c300
c300
c300
c300
6600
3c00
0000
0000
ENDCHAR
STARTCHAR ch-215
ENCODING 215
SWIDTH 600 0
DWIDTH 9 0
BBX 9 15 0 -2
BITMAP
0000
0000
0000
0000
0000
0000
3200
1c00
0800
1c00
2600
0000
0000
0000
0000
ENDCHAR
STARTCHAR ch-216
ENCODING 216
SWIDTH 600 0
DWIDTH 9 0
BBX 9 15 0 -2
BITMAP
0000
0000
0000
3d00
6600
c700
cb00
cb00
d300
d300
e300
6600
bc00
0000
0000
ENDCHAR
STARTCHAR ch-217
ENCODING 217
SWIDTH 600 0
DWIDTH 9 0
BBX 9 15 0 -2
BITMAP
3000
0c00
0000
6300
6300
6300
6300
6300
6300
6300
6300
3600
1c00
0000
0000
ENDCHAR
STARTCHAR ch-218
ENCODING 218
SWIDTH 600 0
DWIDTH 9 0
BBX 9 15 0 -2
BITMAP
0600
1800
0000
6300
6300
6300
6300
6300
6300
6300
6300
3600
1c00
0000
0000
ENDCHAR
STARTCHAR ch-219
ENCODING 219
SWIDTH 600 0
DWIDTH 9 0
BBX 9 15 0 -2
BITMAP
0c00
1200
0000
6300
6300
6300
6300
6300
6300
6300
6300
3600
1c00
0000
0000
ENDCHAR
STARTCHAR ch-220
ENCODING 220
SWIDTH 600 0
DWIDTH 9 0
BBX 9 15 0 -2
BITMAP
1400
1400
0000
6300
6300
6300
6300
6300
6300
6300
6300
3600
1c00
0000
0000
ENDCHAR
STARTCHAR ch-221
ENCODING 221
SWIDTH 600 0
DWIDTH 9 0
BBX 9 15 0 -2
BITMAP
0c00
3000
0000
c300
c300
6200
6600
3400
1800
1800
1800
1800
1800
0000
0000
ENDCHAR
STARTCHAR ch-222
ENCODING 222
SWIDTH 600 0
DWIDTH 9 0
BBX 9 15 0 -2
BITMAP
0000
0000
0000
6000
6000
7e00
6300
6300
6300
6600
7c00
6000
6000
0000
0000
ENDCHAR
STARTCHAR ch-223
ENCODING 223
SWIDTH 600 0
DWIDTH 9 0
BBX 9 15 0 -2
BITMAP
0000
0000
3c00
6600
6600
6400
6c00
6600
6300
6300
6300
6300
6600
0000
0000
ENDCHAR
STARTCHAR ch-224
ENCODING 224
SWIDTH 600 0
DWIDTH 9 0
BBX 9 15 0 -2
BITMAP
0000
0000
3000
0c00
0000
7c00
0600
0600
7e00
c600
c600
ce00
7700
0000
0000
ENDCHAR
STARTCHAR ch-225
ENCODING 225
SWIDTH 600 0
DWIDTH 9 0
BBX 9 15 0 -2
BITMAP
0000
0000
0c00
3000
0000
7c00
0600
0600
7e00
c600
c600
ce00
7700
0000
0000
ENDCHAR
STARTCHAR ch-226
ENCODING 226
SWIDTH 600 0
DWIDTH 9 0
BBX 9 15 0 -2
BITMAP
0000
0000
1800
2400
0000
7c00
0600
0600
7e00
c600
c600
ce00
7700
0000
0000
ENDCHAR
STARTCHAR ch-227
ENCODING 227
SWIDTH 600 0
DWIDTH 9 0
BBX 9 15 0 -2
BITMAP
0000
0000
3400
5800
0000
7c00
0600
0600
7e00
c600
c600
ce00
7700
0000
0000
ENDCHAR
STARTCHAR ch-228
ENCODING 228
SWIDTH 600 0
DWIDTH 9 0
BBX 9 15 0 -2
BITMAP
0000
0000
2800
2800
0000
7c00
0600
0600
7e00
c600
c600
ce00
7700
0000
0000
ENDCHAR
STARTCHAR ch-229
ENCODING 229
SWIDTH 600 0
DWIDTH 9 0
BBX 9 15 0 -2
BITMAP
0000
0000
1800
2400
1800
7c00
0600
0600
7e00
c600
c600
ce00
7700
0000
0000
ENDCHAR
STARTCHAR ch-230
ENCODING 230
SWIDTH 600 0
DWIDTH 9 0
BBX 9 15 0 -2
BITMAP
0000
0000
0000
0000
0000
7600
1b00
1b00
7f00
d800
d800
dd00
6600
0000
0000
ENDCHAR
STARTCHAR ch-231
ENCODING 231
SWIDTH 600 0
DWIDTH 9 0
BBX 9 15 0 -2
BITMAP
0000
0000
0000
0000
0000
1e00
3100
6000
6000
6000
6000
3100
1e00
0400
1800
ENDCHAR
STARTCHAR ch-232
ENCODING 232
SWIDTH 600 0
DWIDTH 9 0
BBX 9 15 0 -2
BITMAP
0000
0000
1800
0600
0000
1e00
3300
6300
7f00
6000
6000
3100
1e00
0000
0000
ENDCHAR
STARTCHAR ch-233
ENCODING 233
SWIDTH 600 0
DWIDTH 9 0
BBX 9 15 0 -2
BITMAP
0000
0000
0600
1800
0000
1e00
3300
6300
7f00
6000
6000
3100
1e00
0000
0000
ENDCHAR
STARTCHAR ch-234
ENCODING 234
SWIDTH 600 0
DWIDTH 9 0
BBX 9 15 0 -2
BITMAP
0000
0000
0c00
1200
0000
1e00
3300
6300
7f00
6000
6000
3100
1e00
0000
0000
ENDCHAR
STARTCHAR ch-235
ENCODING 235
SWIDTH 600 0
DWIDTH 9 0
BBX 9 15 0 -2
BITMAP
0000
0000
1200
1200
0000
1e00
3300
6300
7f00
6000
6000
3100
1e00
0000
0000
ENDCHAR
STARTCHAR ch-236
ENCODING 236
SWIDTH 600 0
DWIDTH 9 0
BBX 9 15 0 -2
BITMAP
0000
0000
1800
0600
0000
7c00
0c00
0c00
0c00
0c00
0c00
0c00
0c00
0000
0000
ENDCHAR
STARTCHAR ch-237
ENCODING 237
SWIDTH 600 0
DWIDTH 9 0
BBX 9 15 0 -2
BITMAP
0000
0000
0600
1800
0000
7c00
0c00
0c00
0c00
0c00
0c00
0c00
0c00
0000
0000
ENDCHAR
STARTCHAR ch-238
ENCODING 238
SWIDTH 600 0
DWIDTH 9 0
BBX 9 15 0 -2
BITMAP
0000
0000
0c00
1200
0000
7c00
0c00
0c00
0c00
0c00
0c00
0c00
0c00
0000
0000
ENDCHAR
STARTCHAR ch-239
ENCODING 239
SWIDTH 600 0
DWIDTH 9 0
BBX 9 15 0 -2
BITMAP
0000
0000
1200
1200
0000
7c00
0c00
0c00
0c00
0c00
0c00
0c00
0c00
0000
0000
ENDCHAR
STARTCHAR ch-240
ENCODING 240
SWIDTH 600 0
DWIDTH 9 0
BBX 9 15 0 -2
BITMAP
0000
0000
7600
1800
6c00
0600
1e00
3700
6300
6300
6300
3600
1c00
0000
0000
ENDCHAR
STARTCHAR ch-241
ENCODING 241
SWIDTH 600 0
DWIDTH 9 0
BBX 9 15 0 -2
BITMAP
0000
0000
1a00
2c00
0000
6e00
7700
6300
6300
6300
6300
6300
6300
0000
0000
ENDCHAR
STARTCHAR ch-242
ENCODING 242
SWIDTH 600 0
DWIDTH 9 0
BBX 9 15 0 -2
BITMAP
0000
0000
3000
0c00
0000
1c00
3600
6300
6300
6300
6300
3600
1c00
0000
0000
ENDCHAR
STARTCHAR ch-243
ENCODING 243
SWIDTH 600 0
DWIDTH 9 0
BBX 9 15 0 -2
BITMAP
0000
0000
0600
1800
0000
1c00
3600
6300
6300
6300
6300
3600
1c00
0000
0000
ENDCHAR
STARTCHAR ch-244
ENCODING 244
SWIDTH 600 0
DWIDTH 9 0
BBX 9 15 0 -2
BITMAP
0000
0000
0c00
1200
0000
1c00
3600
6300
6300
6300
6300
3600
1c00
0000
0000
ENDCHAR
STARTCHAR ch-245
ENCODING 245
SWIDTH 600 0
DWIDTH 9 0
BBX 9 15 0 -2
BITMAP
0000
0000
1a00
2c00
0000
1c00
3600
6300
6300
6300
6300
3600
1c00
0000
0000
ENDCHAR
STARTCHAR ch-246
ENCODING 246
SWIDTH 600 0
DWIDTH 9 0
BBX 9 15 0 -2
BITMAP
0000
0000
1400
1400
0000
1c00
3600
6300
6300
6300
6300
3600
1c00
0000
0000
ENDCHAR
STARTCHAR ch-247
ENCODING 247
SWIDTH 600 0
DWIDTH 9 0
BBX 9 15 0 -2
BITMAP
0000
0000
0000
0000
0000
0800
0800
0000
7f00
0000
0800
0800
0000
0000
0000
ENDCHAR
STARTCHAR ch-248
ENCODING 248
SWIDTH 600 0
DWIDTH 9 0
BBX 9 15 0 -2
BITMAP
0000
0000
0000
0000
0000
1d00
3600
6700
6b00
6b00
7300
3600
5c00
0000
0000
ENDCHAR
STARTCHAR ch-249
ENCODING 249
SWIDTH 600 0
DWIDTH 9 0
BBX 9 15 0 -2
BITMAP
0000
0000
3000
0c00
0000
6300
6300
6300
6300
6300
6300
7700
3b00
0000
0000
ENDCHAR
STARTCHAR ch-250
ENCODING 250
SWIDTH 600 0
DWIDTH 9 0
BBX 9 15 0 -2
BITMAP
0000
0000
0600
1800
0000
6300
6300
6300
6300
6300
6300
7700
3b00
0000
0000
ENDCHAR
STARTCHAR ch-251
ENCODING 251
SWIDTH 600 0
DWIDTH 9 0
BBX 9 15 0 -2
BITMAP
0000
0000
0c00
1200
0000
6300
6300
6300
6300
6300
6300
7700
3b00
0000
0000
ENDCHAR
STARTCHAR ch-252
ENCODING 252
SWIDTH 600 0
DWIDTH 9 0
BBX 9 15 0 -2
BITMAP
0000
0000
1400
1400
0000
6300
6300
6300
6300
6300
6300
7700
3b00
0000
0000
ENDCHAR
STARTCHAR ch-253
ENCODING 253
SWIDTH 600 0
DWIDTH 9 0
BBX 9 15 0 -2
BITMAP
0000
0000
0600
1800
0000
6300
6300
6300
3600
3600
1c00
1800
1800
3000
3000
ENDCHAR
STARTCHAR ch-254
ENCODING 254
SWIDTH 600 0
DWIDTH 9 0
BBX 9 15 0 -2
BITMAP
0000
0000
0000
6000
6000
6c00
7600
6300
6300
6300
6300
6600
7c00
6000
6000
ENDCHAR
STARTCHAR ch-255
ENCODING 255
SWIDTH 600 0
DWIDTH 9 0
BBX 9 15 0 -2
BITMAP
0000
0000
1400
1400
0000
6300
6300
6300
3600
3600
1c00
1800
1800
3000
3000
ENDCHAR
ENDFONT
